<?xml version="1.0" encoding="utf-8"?>
<!-- Generator: Adobe Illustrator 26.3.1, SVG Export Plug-In . SVG Version: 6.00 Build 0)  -->
<svg version="1.1" id="Calque_1" xmlns="http://www.w3.org/2000/svg" xmlns:xlink="http://www.w3.org/1999/xlink" x="0px" y="0px"
	 viewBox="0 0 342.9 311.4" style="enable-background:new 0 0 342.9 311.4;" xml:space="preserve">
<style type="text/css">
	.st0{fill:none;}
	.st1{fill:#279A90;}
	.st2{fill:#FFFFFF;}
</style>
<polygon class="st0" points="163.2,246.4 174.2,246.4 174.2,287.2 160.4,287.2 "/>
<g>
	<path class="st1" d="M9.1,143.3c0,0,72,6.1,102-23.9c14-8,24-21,45-55c0,0,35-70,88-64c36,0,50,25,50,25l37-6c0,0,18,1-6,19
		c14,0,14,0,14,0s10,4-3,14s-23,17-23,17s10,43-7,80c-9,23-24.5,48.5-39,61s-36,29-70,33l-2,43c0,0,23-2,30,5s2,20-10,20
		s-66.1,0-66.1,0s-8.9-3-8.9-16s0-49,0-49s-55.6-6.6-89-34c-29.2-24-43.3-37.1-50.1-56.7C-3.8,141.4,9.1,143.3,9.1,143.3z"/>
	<path class="st2" d="M198.2,83.4c0,0,12,43-1,74s-34,31-34,31s-16,2-24-2c-9,5-15,9-24,8s-15-7-17-12c-6,1-15,3-21-1s-7-8-7-8
		s-1-5,6-5s36-4,52-16c17-11,29-17,44-37s19.6-32,19.6-32S195.2,76.4,198.2,83.4z"/>
</g>
<circle class="st2" cx="243.2" cy="55.4" r="16"/>
</svg>
